<svg width="96" height="35" viewBox="0 0 96 35" fill="none" xmlns="http://www.w3.org/2000/svg">
<path d="M43.4034 9.30539C43.3507 8.7735 43.1243 8.36029 42.7242 8.06577C42.3242 7.77125 41.7813 7.62399 41.0956 7.62399C40.6296 7.62399 40.2362 7.68993 39.9153 7.8218C39.5944 7.94928 39.3483 8.12731 39.1768 8.3559C39.0098 8.58448 38.9263 8.84383 38.9263 9.13396C38.9175 9.37573 38.968 9.58673 39.0779 9.76695C39.1922 9.94718 39.3483 10.1032 39.5461 10.2351C39.7439 10.3626 39.9725 10.4747 40.2318 10.5714C40.4912 10.6637 40.7681 10.7428 41.0626 10.8088L42.2759 11.0989C42.8649 11.2308 43.4056 11.4066 43.8979 11.6264C44.3903 11.8462 44.8167 12.1165 45.1771 12.4374C45.5376 12.7583 45.8167 13.1364 46.0145 13.5715C46.2167 14.0067 46.32 14.5056 46.3244 15.0683C46.32 15.8947 46.109 16.6112 45.6914 17.2179C45.2782 17.8201 44.6804 18.2883 43.8979 18.6223C43.1199 18.952 42.1814 19.1169 41.0824 19.1169C39.9922 19.1169 39.0427 18.9498 38.2339 18.6157C37.4295 18.2817 36.8009 17.7871 36.3481 17.1322C35.8997 16.4728 35.6646 15.6574 35.6426 14.6859H38.4054C38.4361 15.1386 38.5658 15.5167 38.7944 15.82C39.0274 16.1189 39.3373 16.3453 39.7241 16.4992C40.1153 16.6486 40.5571 16.7233 41.0494 16.7233C41.533 16.7233 41.9528 16.653 42.3088 16.5123C42.6693 16.3717 42.9484 16.1761 43.1462 15.9255C43.3441 15.6749 43.443 15.387 43.443 15.0617C43.443 14.7584 43.3528 14.5035 43.1726 14.2968C42.9968 14.0902 42.7374 13.9144 42.3946 13.7693C42.0561 13.6243 41.6407 13.4924 41.1483 13.3737L39.6779 13.0045C38.5394 12.7275 37.6405 12.2946 36.9811 11.7055C36.3217 11.1165 35.9942 10.323 35.9986 9.32517C35.9942 8.50755 36.2118 7.79323 36.6514 7.18221C37.0954 6.57119 37.7042 6.09425 38.4779 5.75137C39.2515 5.4085 40.1307 5.23706 41.1154 5.23706C42.1176 5.23706 42.9924 5.4085 43.7397 5.75137C44.4914 6.09425 45.076 6.57119 45.4936 7.18221C45.9112 7.79323 46.1266 8.50096 46.1398 9.30539H43.4034Z" fill="white"/>
<path d="M62.971 12.1771C62.971 13.6497 62.6919 14.9025 62.1336 15.9355C61.5797 16.9685 60.8236 17.7576 59.8653 18.3027C58.9115 18.8433 57.8389 19.1137 56.6476 19.1137C55.4475 19.1137 54.3706 18.8411 53.4167 18.2961C52.4628 17.751 51.7089 16.9619 51.155 15.9289C50.6012 14.8959 50.3242 13.6453 50.3242 12.1771C50.3242 10.7045 50.6012 9.45168 51.155 8.41866C51.7089 7.38564 52.4628 6.59879 53.4167 6.0581C54.3706 5.51302 55.4475 5.24048 56.6476 5.24048C57.8389 5.24048 58.9115 5.51302 59.8653 6.0581C60.8236 6.59879 61.5797 7.38564 62.1336 8.41866C62.6919 9.45168 62.971 10.7045 62.971 12.1771ZM60.0763 12.1771C60.0763 11.2232 59.9335 10.4188 59.6478 9.76378C59.3664 9.1088 58.9686 8.61207 58.4543 8.2736C57.94 7.93512 57.3378 7.76588 56.6476 7.76588C55.9575 7.76588 55.3552 7.93512 54.8409 8.2736C54.3266 8.61207 53.9266 9.1088 53.6409 9.76378C53.3595 10.4188 53.2189 11.2232 53.2189 12.1771C53.2189 13.131 53.3595 13.9354 53.6409 14.5904C53.9266 15.2454 54.3266 15.7421 54.8409 16.0806C55.3552 16.4191 55.9575 16.5883 56.6476 16.5883C57.3378 16.5883 57.94 16.4191 58.4543 16.0806C58.9686 15.7421 59.3664 15.2454 59.6478 14.5904C59.9335 13.9354 60.0763 13.131 60.0763 12.1771Z" fill="white"/>
<path d="M66.9717 5.42505H70.4927L74.2116 14.498H74.3698L78.0887 5.42505H81.6098V18.929H78.8404V10.1396H78.7283L75.2336 18.8631H73.3478L69.8531 10.1066H69.741V18.929H66.9717V5.42505Z" fill="white"/>
<path d="M85.6094 18.929V5.42505H94.7087V7.77901H88.4645V10.9968H94.2406V13.3507H88.4645V16.575H94.7351V18.929H85.6094Z" fill="white"/>
<path d="M18.701 10.2782C18.5739 8.96306 18.0284 7.94135 17.0645 7.21311C16.1006 6.48487 14.7924 6.12075 13.14 6.12075C12.0172 6.12075 11.0691 6.28379 10.2959 6.60987C9.52264 6.92508 8.92947 7.36528 8.51636 7.93048C8.11384 8.49568 7.91259 9.13697 7.91259 9.85434C7.8914 10.4521 8.01322 10.9739 8.27803 11.4195C8.55343 11.8652 8.92947 12.251 9.40613 12.5771C9.88279 12.8923 10.4336 13.1695 11.0586 13.4086C11.6835 13.6368 12.3508 13.8325 13.0605 13.9955L15.9841 14.7129C17.4035 15.039 18.7063 15.4737 19.8927 16.0172C21.079 16.5607 22.1065 17.2291 22.9751 18.0226C23.8437 18.816 24.5163 19.7508 24.993 20.8268C25.4802 21.9029 25.7291 23.1366 25.7397 24.5278C25.7291 26.5712 25.2207 28.3429 24.2144 29.8429C23.2187 31.332 21.7782 32.4896 19.8927 33.3156C18.0178 34.1308 15.7563 34.5384 13.1082 34.5384C10.4813 34.5384 8.19329 34.1254 6.24427 33.2993C4.30585 32.4732 2.79112 31.2505 1.70009 29.6309C0.61966 28.0006 0.0529625 25.9843 0 23.5822H6.65738C6.73152 24.7017 7.044 25.6365 7.59481 26.3865C8.15621 27.1256 8.90298 27.6853 9.83512 28.0658C10.7779 28.4353 11.8424 28.6201 13.0288 28.6201C14.1939 28.6201 15.2055 28.4462 16.0635 28.0984C16.9321 27.7506 17.6047 27.2669 18.0814 26.6473C18.558 26.0278 18.7964 25.3158 18.7964 24.5115C18.7964 23.7615 18.5792 23.1311 18.1449 22.6203C17.7212 22.1094 17.0963 21.6746 16.2701 21.316C15.4544 20.9573 14.4534 20.6312 13.2671 20.3377L9.7239 19.4247C6.98045 18.7399 4.81428 17.6693 3.22541 16.2129C1.63654 14.7564 0.847399 12.7945 0.857991 10.3272C0.847399 8.30547 1.37173 6.53922 2.43098 5.02839C3.50082 3.51757 4.96788 2.33825 6.83215 1.49045C8.69643 0.642651 10.8149 0.21875 13.1876 0.21875C15.6027 0.21875 17.7106 0.642651 19.5114 1.49045C21.3227 2.33825 22.7315 3.51757 23.7378 5.02839C24.744 6.53922 25.2631 8.28917 25.2949 10.2782H18.701Z" fill="#253EBB"/>
<path d="M20.8456 10.2782C20.7185 8.96306 20.1729 7.94135 19.209 7.21311C18.2451 6.48487 16.9369 6.12075 15.2845 6.12075C14.1617 6.12075 13.2137 6.28379 12.4404 6.60987C11.6672 6.92508 11.074 7.36528 10.6609 7.93048C10.2584 8.49568 10.0571 9.13697 10.0571 9.85434C10.0359 10.4521 10.1577 10.9739 10.4226 11.4195C10.698 11.8652 11.074 12.251 11.5507 12.5771C12.0273 12.8923 12.5781 13.1695 13.2031 13.4086C13.828 13.6368 14.4954 13.8325 15.2051 13.9955L18.1286 14.7129C19.548 15.039 20.8509 15.4737 22.0372 16.0172C23.2236 16.5607 24.2511 17.2291 25.1196 18.0226C25.9882 18.816 26.6608 19.7508 27.1375 20.8268C27.6248 21.9029 27.8737 23.1366 27.8843 24.5278C27.8737 26.5712 27.3652 28.3429 26.359 29.8429C25.3633 31.332 23.9227 32.4896 22.0372 33.3156C20.1623 34.1308 17.9009 34.5384 15.2527 34.5384C12.6258 34.5384 10.3378 34.1254 8.3888 33.2993C6.45038 32.4732 4.93565 31.2505 3.84463 29.6309C2.76419 28.0006 2.19749 25.9843 2.14453 23.5822H8.80191C8.87606 24.7017 9.18853 25.6365 9.73934 26.3865C10.3007 27.1256 11.0475 27.6853 11.9797 28.0658C12.9224 28.4353 13.9869 28.6201 15.1733 28.6201C16.3385 28.6201 17.35 28.4462 18.208 28.0984C19.0766 27.7506 19.7492 27.2669 20.2259 26.6473C20.7026 26.0278 20.9409 25.3158 20.9409 24.5115C20.9409 23.7615 20.7238 23.1311 20.2895 22.6203C19.8658 22.1094 19.2408 21.6746 18.4146 21.316C17.599 20.9573 16.598 20.6312 15.4116 20.3377L11.8684 19.4247C9.12498 18.7399 6.95882 17.6693 5.36994 16.2129C3.78107 14.7564 2.99193 12.7945 3.00252 10.3272C2.99193 8.30547 3.51626 6.53922 4.57551 5.02839C5.64535 3.51757 7.11241 2.33825 8.97668 1.49045C10.841 0.642651 12.9595 0.21875 15.3322 0.21875C17.7473 0.21875 19.8552 0.642651 21.6559 1.49045C23.4672 2.33825 24.876 3.51757 25.8823 5.02839C26.8886 6.53922 27.4076 8.28917 27.4394 10.2782H20.8456Z" fill="#3859FF"/>
<path d="M37.889 22.7942V29.7573H36.8516L36.8516 22.7942H37.889Z" fill="white"/>
<path d="M53.9482 29.7748C53.3386 29.7748 52.8038 29.6297 52.3437 29.3396C51.8865 29.0494 51.529 28.6436 51.2711 28.1219C51.0162 27.6003 50.8887 26.9907 50.8887 26.2933C50.8887 25.5899 51.0162 24.976 51.2711 24.4514C51.529 23.9268 51.8865 23.5195 52.3437 23.2294C52.8038 22.9393 53.3386 22.7942 53.9482 22.7942C54.5577 22.7942 55.0911 22.9393 55.5482 23.2294C56.0083 23.5195 56.3659 23.9268 56.6208 24.4514C56.8787 24.976 57.0077 25.5899 57.0077 26.2933C57.0077 26.9907 56.8787 27.6003 56.6208 28.1219C56.3659 28.6436 56.0083 29.0494 55.5482 29.3396C55.0911 29.6297 54.5577 29.7748 53.9482 29.7748ZM53.9482 28.8428C54.4112 28.8428 54.7922 28.7242 55.0911 28.4868C55.39 28.2494 55.6112 27.9373 55.7548 27.5505C55.8984 27.1636 55.9702 26.7446 55.9702 26.2933C55.9702 25.842 55.8984 25.4214 55.7548 25.0317C55.6112 24.6419 55.39 24.3269 55.0911 24.0866C54.7922 23.8463 54.4112 23.7261 53.9482 23.7261C53.4851 23.7261 53.1042 23.8463 52.8052 24.0866C52.5063 24.3269 52.2851 24.6419 52.1415 25.0317C51.9979 25.4214 51.9261 25.842 51.9261 26.2933C51.9261 26.7446 51.9979 27.1636 52.1415 27.5505C52.2851 27.9373 52.5063 28.2494 52.8052 28.4868C53.1042 28.7242 53.4851 28.8428 53.9482 28.8428Z" fill="white"/>
<path d="M73.0497 32.3067C72.5486 32.3067 72.1178 32.2423 71.7573 32.1133C71.3969 31.9873 71.0965 31.8203 70.8562 31.6122C70.6188 31.4071 70.4298 31.1873 70.2891 30.9528L71.1156 30.3726C71.2093 30.4957 71.328 30.6363 71.4716 30.7946C71.6152 30.9558 71.8116 31.095 72.0607 31.2122C72.3127 31.3323 72.6424 31.3924 73.0497 31.3924C73.5948 31.3924 74.0446 31.2605 74.3992 30.9968C74.7538 30.733 74.9311 30.3198 74.9311 29.7572V28.3857H74.8432C74.767 28.5088 74.6586 28.6611 74.5179 28.8428C74.3802 29.0216 74.1809 29.1813 73.9201 29.322C73.6622 29.4597 73.3135 29.5286 72.8739 29.5286C72.3288 29.5286 71.8394 29.3996 71.4057 29.1418C70.9749 28.8839 70.6335 28.5088 70.3815 28.0164C70.1324 27.5241 70.0078 26.9263 70.0078 26.2229C70.0078 25.5313 70.1294 24.9291 70.3727 24.4162C70.6159 23.9005 70.9544 23.5019 71.3881 23.2206C71.8218 22.9363 72.3229 22.7942 72.8915 22.7942C73.3311 22.7942 73.6798 22.8675 73.9377 23.014C74.1985 23.1576 74.3978 23.3217 74.5355 23.5063C74.6762 23.688 74.7846 23.8375 74.8608 23.9547H74.9663V22.8821H75.9685V29.8275C75.9685 30.4078 75.8367 30.8796 75.5729 31.243C75.3121 31.6093 74.9604 31.8774 74.5179 32.0474C74.0783 32.2203 73.5889 32.3067 73.0497 32.3067ZM73.0146 28.5967C73.4307 28.5967 73.7824 28.5014 74.0696 28.3109C74.3567 28.1205 74.5751 27.8465 74.7245 27.4889C74.874 27.1314 74.9487 26.7035 74.9487 26.2053C74.9487 25.7189 74.8755 25.2896 74.7289 24.9174C74.5824 24.5452 74.3655 24.2536 74.0783 24.0426C73.7911 23.8316 73.4366 23.7261 73.0146 23.7261C72.575 23.7261 72.2087 23.8375 71.9156 24.0602C71.6255 24.2829 71.4072 24.5818 71.2606 24.9569C71.117 25.332 71.0452 25.7482 71.0452 26.2053C71.0452 26.6742 71.1185 27.0889 71.265 27.4494C71.4145 27.8069 71.6343 28.0882 71.9244 28.2934C72.2174 28.4956 72.5808 28.5967 73.0146 28.5967Z" fill="white"/>
<path d="M92.0282 29.7748C91.4187 29.7748 90.8839 29.6297 90.4238 29.3396C89.9666 29.0494 89.6091 28.6436 89.3512 28.1219C89.0962 27.6003 88.9688 26.9907 88.9688 26.2933C88.9688 25.5899 89.0962 24.976 89.3512 24.4514C89.6091 23.9268 89.9666 23.5195 90.4238 23.2294C90.8839 22.9393 91.4187 22.7942 92.0282 22.7942C92.6378 22.7942 93.1712 22.9393 93.6283 23.2294C94.0884 23.5195 94.4459 23.9268 94.7009 24.4514C94.9588 24.976 95.0877 25.5899 95.0877 26.2933C95.0877 26.9907 94.9588 27.6003 94.7009 28.1219C94.4459 28.6436 94.0884 29.0494 93.6283 29.3396C93.1712 29.6297 92.6378 29.7748 92.0282 29.7748ZM92.0282 28.8428C92.4913 28.8428 92.8722 28.7242 93.1712 28.4868C93.4701 28.2494 93.6913 27.9373 93.8349 27.5505C93.9785 27.1636 94.0503 26.7446 94.0503 26.2933C94.0503 25.842 93.9785 25.4214 93.8349 25.0317C93.6913 24.6419 93.4701 24.3269 93.1712 24.0866C92.8722 23.8463 92.4913 23.7261 92.0282 23.7261C91.5652 23.7261 91.1842 23.8463 90.8853 24.0866C90.5864 24.3269 90.3652 24.6419 90.2216 25.0317C90.078 25.4214 90.0062 25.842 90.0062 26.2933C90.0062 26.7446 90.078 27.1636 90.2216 27.5505C90.3652 27.9373 90.5864 28.2494 90.8853 28.4868C91.1842 28.7242 91.5652 28.8428 92.0282 28.8428Z" fill="white"/>
</svg>
